<svg width="144" height="42" viewBox="0 0 144 42" fill="none" xmlns="http://www.w3.org/2000/svg">
<path d="M1.69043 30V11.5156H7.37793C9.00293 11.5156 10.4544 11.8838 11.7324 12.6201C13.0189 13.348 14.0218 14.389 14.7412 15.7432C15.4606 17.0889 15.8203 18.6208 15.8203 20.3389V21.1895C15.8203 22.9076 15.4648 24.4352 14.7539 25.7725C14.0514 27.1097 13.057 28.1465 11.7705 28.8828C10.484 29.6191 9.03255 29.9915 7.41602 30H1.69043ZM5.49902 14.6006V26.9404H7.33984C8.82943 26.9404 9.96777 26.4538 10.7549 25.4805C11.542 24.5072 11.944 23.1149 11.9609 21.3037V20.3262C11.9609 18.4473 11.5716 17.0254 10.793 16.0605C10.0143 15.0872 8.87598 14.6006 7.37793 14.6006H5.49902ZM22.2314 30H18.5498V16.2637H22.2314V30ZM18.334 12.709C18.334 12.1589 18.516 11.7061 18.8799 11.3506C19.2523 10.9951 19.7559 10.8174 20.3906 10.8174C21.0169 10.8174 21.5163 10.9951 21.8887 11.3506C22.2611 11.7061 22.4473 12.1589 22.4473 12.709C22.4473 13.2676 22.2568 13.7246 21.876 14.0801C21.5036 14.4355 21.0085 14.6133 20.3906 14.6133C19.7728 14.6133 19.2734 14.4355 18.8926 14.0801C18.5202 13.7246 18.334 13.2676 18.334 12.709ZM30.4961 20.3643L32.8066 16.2637H36.7295L32.8193 22.9922L36.8945 30H32.959L30.5088 25.6836L28.0713 30H24.123L28.1982 22.9922L24.3008 16.2637H28.2363L30.4961 20.3643ZM44.5625 30.2539C42.5482 30.2539 40.9062 29.6361 39.6367 28.4004C38.3757 27.1647 37.7451 25.5186 37.7451 23.4619V23.1064C37.7451 21.7269 38.0117 20.4954 38.5449 19.4121C39.0781 18.3203 39.8314 17.4824 40.8047 16.8984C41.7865 16.306 42.9036 16.0098 44.1562 16.0098C46.0352 16.0098 47.512 16.6022 48.5869 17.7871C49.6702 18.972 50.2119 20.652 50.2119 22.8271V24.3252H41.4648C41.5833 25.2223 41.9388 25.9417 42.5312 26.4834C43.1322 27.0251 43.8896 27.2959 44.8037 27.2959C46.2171 27.2959 47.3216 26.7839 48.1172 25.7598L49.9199 27.7783C49.3698 28.557 48.625 29.1663 47.6855 29.6064C46.7461 30.0381 45.7051 30.2539 44.5625 30.2539ZM44.1436 18.9805C43.4157 18.9805 42.8232 19.2259 42.3662 19.7168C41.9176 20.2077 41.6299 20.9102 41.5029 21.8242H46.6064V21.5322C46.5895 20.7197 46.3695 20.0934 45.9463 19.6533C45.5231 19.2048 44.9222 18.9805 44.1436 18.9805ZM55.6836 16.2637L55.7979 17.8506C56.7796 16.6234 58.0957 16.0098 59.7461 16.0098C61.2018 16.0098 62.2852 16.4372 62.9961 17.292C63.707 18.1468 64.071 19.4248 64.0879 21.126V30H60.4189V21.2148C60.4189 20.4362 60.2497 19.8734 59.9111 19.5264C59.5726 19.1709 59.0098 18.9932 58.2227 18.9932C57.1901 18.9932 56.4157 19.4333 55.8994 20.3135V30H52.2305V16.2637H55.6836ZM70.4609 17.7617C71.4342 16.5938 72.6572 16.0098 74.1299 16.0098C77.109 16.0098 78.6198 17.7406 78.6621 21.2021V30H74.9932V21.3037C74.9932 20.5166 74.8239 19.9368 74.4854 19.5645C74.1468 19.1836 73.584 18.9932 72.7969 18.9932C71.722 18.9932 70.9434 19.4079 70.4609 20.2373V30H66.792V10.5H70.4609V17.7617ZM89.3896 30C89.2204 29.6699 89.0977 29.2594 89.0215 28.7686C88.1328 29.7588 86.9775 30.2539 85.5557 30.2539C84.21 30.2539 83.0928 29.8646 82.2041 29.0859C81.3239 28.3073 80.8838 27.3255 80.8838 26.1406C80.8838 24.6849 81.4212 23.5677 82.4961 22.7891C83.5794 22.0104 85.141 21.6169 87.1807 21.6084H88.8691V20.8213C88.8691 20.1865 88.7041 19.6787 88.374 19.2979C88.0524 18.917 87.5404 18.7266 86.8379 18.7266C86.2201 18.7266 85.7334 18.8747 85.3779 19.1709C85.0309 19.4671 84.8574 19.8734 84.8574 20.3896H81.1885C81.1885 19.5941 81.4339 18.8577 81.9248 18.1807C82.4157 17.5036 83.1097 16.9746 84.0068 16.5938C84.904 16.2044 85.9111 16.0098 87.0283 16.0098C88.721 16.0098 90.0625 16.4372 91.0527 17.292C92.0514 18.1383 92.5508 19.3317 92.5508 20.8721V26.8262C92.5592 28.1296 92.7412 29.1156 93.0967 29.7842V30H89.3896ZM86.3555 27.4482C86.8971 27.4482 87.3965 27.3298 87.8535 27.0928C88.3105 26.8473 88.6491 26.5215 88.8691 26.1152V23.7539H87.498C85.6615 23.7539 84.6839 24.3887 84.5654 25.6582L84.5527 25.874C84.5527 26.3311 84.7135 26.7077 85.0352 27.0039C85.3568 27.3001 85.7969 27.4482 86.3555 27.4482Z" fill="#AF3A87"/>
<circle cx="123" cy="21" r="21" fill="#8AAF3A"/>
<path d="M114.5 26.4844L117.641 15.0938H122.359L116.656 32H112.344L106.641 15.0938H111.359L114.5 26.4844ZM128.516 15.0938L128.656 17.0469C129.865 15.5365 131.484 14.7812 133.516 14.7812C135.307 14.7812 136.641 15.3073 137.516 16.3594C138.391 17.4115 138.839 18.9844 138.859 21.0781V32H134.344V21.1875C134.344 20.2292 134.135 19.5365 133.719 19.1094C133.302 18.6719 132.609 18.4531 131.641 18.4531C130.37 18.4531 129.417 18.9948 128.781 20.0781V32H124.266V15.0938H128.516Z" fill="white"/>
</svg>
