<svg width="28" height="24" viewBox="0 0 28 24" fill="none" xmlns="http://www.w3.org/2000/svg">
<g clip-path="url(#clip0)">
<path d="M26.8698 16.8803H23.4359C23.3305 16.8803 23.2295 16.8385 23.155 16.764C23.0805 16.6895 23.0386 16.5884 23.0386 16.4831C23.0386 16.3777 23.0805 16.2767 23.155 16.2022C23.2295 16.1277 23.3305 16.0858 23.4359 16.0858H26.8698C26.8951 16.0861 26.9202 16.0813 26.9437 16.0717C26.9671 16.0621 26.9884 16.0479 27.0063 16.0299C27.0242 16.012 27.0383 15.9906 27.0478 15.9671C27.0573 15.9436 27.062 15.9185 27.0616 15.8931V11.8896C27.0608 11.8422 27.0428 11.7968 27.011 11.7618C26.9793 11.7267 26.9358 11.7044 26.8888 11.6989L21.3189 10.9838H3.24758V15.8931C3.24726 15.9184 3.25199 15.9434 3.2615 15.9668C3.271 15.9902 3.28509 16.0115 3.30293 16.0294C3.32077 16.0473 3.342 16.0614 3.36538 16.0709C3.38876 16.0805 3.41381 16.0853 3.43906 16.085H5.38205C5.48741 16.085 5.58845 16.1269 5.66296 16.2014C5.73746 16.2759 5.77931 16.3769 5.77931 16.4823C5.77931 16.5876 5.73746 16.6887 5.66296 16.7632C5.58845 16.8377 5.48741 16.8795 5.38205 16.8795H3.43906C3.17759 16.8792 2.92692 16.7752 2.74206 16.5902C2.55721 16.4053 2.45327 16.1546 2.45306 15.8931V10.5881C2.45306 10.4828 2.49492 10.3817 2.56942 10.3072C2.64392 10.2327 2.74496 10.1909 2.85032 10.1909H21.3439C21.3608 10.1909 21.3776 10.1921 21.3943 10.1945L26.9838 10.9095C27.2242 10.9372 27.4459 11.0525 27.6068 11.2332C27.7677 11.4139 27.8565 11.6476 27.8562 11.8896V15.8931C27.8561 16.1548 27.7521 16.4057 27.5672 16.5908C27.3822 16.7759 27.1314 16.88 26.8698 16.8803Z" fill="white"/>
<path d="M18.6369 16.8803H10.1805C10.0752 16.8803 9.97412 16.8385 9.89962 16.764C9.82512 16.6895 9.78326 16.5884 9.78326 16.4831C9.78326 16.3777 9.82512 16.2767 9.89962 16.2022C9.97412 16.1277 10.0752 16.0858 10.1805 16.0858H18.6369C18.7423 16.0858 18.8433 16.1277 18.9178 16.2022C18.9923 16.2767 19.0342 16.3777 19.0342 16.4831C19.0342 16.5884 18.9923 16.6895 18.9178 16.764C18.8433 16.8385 18.7423 16.8803 18.6369 16.8803Z" fill="white"/>
<path d="M21.3456 10.987C21.2735 10.9871 21.2028 10.9676 21.1411 10.9306C21.0793 10.8935 21.0287 10.8404 20.9948 10.7769L18.154 5.44965L17.7818 5.46117C17.6764 5.46117 17.5754 5.41932 17.5009 5.34482C17.4264 5.27032 17.3845 5.16927 17.3845 5.06392C17.3845 4.95856 17.4264 4.85751 17.5009 4.78301C17.5754 4.70851 17.6764 4.66666 17.7818 4.66666H18.1751C18.314 4.66719 18.4503 4.70509 18.5696 4.77638C18.6889 4.84767 18.7869 4.94972 18.8532 5.07186L21.6959 10.4027C21.7283 10.4632 21.7443 10.5311 21.7426 10.5997C21.7409 10.6682 21.7215 10.7352 21.6862 10.7941C21.6509 10.8529 21.601 10.9016 21.5413 10.9354C21.4816 10.9693 21.4142 10.987 21.3456 10.987Z" fill="white"/>
<path d="M2.84835 10.987C2.77977 10.9869 2.71238 10.9691 2.65273 10.9353C2.59309 10.9014 2.54322 10.8527 2.50799 10.7939C2.47275 10.735 2.45334 10.6681 2.45166 10.5995C2.44997 10.531 2.46606 10.4632 2.49836 10.4027L5.34273 5.07542C5.40764 4.95141 5.50544 4.84767 5.62541 4.77557C5.74537 4.70346 5.88288 4.66578 6.02284 4.66664H13.4118C13.5172 4.66664 13.6183 4.70849 13.6928 4.78299C13.7673 4.85749 13.8091 4.95854 13.8091 5.0639C13.8091 5.16926 13.7673 5.2703 13.6928 5.3448C13.6183 5.4193 13.5172 5.46116 13.4118 5.46116H6.02284L3.19913 10.7769C3.1652 10.8404 3.11464 10.8935 3.05285 10.9305C2.99106 10.9676 2.92037 10.9871 2.84835 10.987Z" fill="white"/>
<path d="M15.9027 5.46117H15.287C15.1816 5.46117 15.0806 5.41932 15.0061 5.34482C14.9316 5.27032 14.8897 5.16928 14.8897 5.06392C14.8897 4.95856 14.9316 4.85751 15.0061 4.78301C15.0806 4.70851 15.1816 4.66666 15.287 4.66666H15.9027C16.0081 4.66666 16.1091 4.70851 16.1836 4.78301C16.2581 4.85751 16.3 4.95856 16.3 5.06392C16.3 5.16928 16.2581 5.27032 16.1836 5.34482C16.1091 5.41932 16.0081 5.46117 15.9027 5.46117Z" fill="white"/>
<path d="M11.9115 10.9855C11.8061 10.9855 11.7051 10.9436 11.6306 10.8691C11.5561 10.7946 11.5142 10.6936 11.5142 10.5882V5.0663C11.5142 4.96094 11.5561 4.85989 11.6306 4.78539C11.7051 4.71089 11.8061 4.66904 11.9115 4.66904C12.0168 4.66904 12.1179 4.71089 12.1924 4.78539C12.2669 4.85989 12.3087 4.96094 12.3087 5.0663V10.5882C12.3087 10.6936 12.2669 10.7946 12.1924 10.8691C12.1179 10.9436 12.0168 10.9855 11.9115 10.9855Z" fill="white"/>
<path d="M21.0361 19.153C20.4817 19.153 19.9398 18.9886 19.4788 18.6806C19.0178 18.3726 18.6586 17.9348 18.4464 17.4226C18.2342 16.9105 18.1787 16.3469 18.2869 15.8031C18.3951 15.2594 18.662 14.7599 19.054 14.3679C19.446 13.9759 19.9455 13.709 20.4892 13.6008C21.033 13.4926 21.5966 13.5482 22.1088 13.7603C22.621 13.9725 23.0588 14.3317 23.3668 14.7927C23.6748 15.2536 23.8392 15.7956 23.8392 16.35C23.8382 17.0931 23.5426 17.8055 23.0171 18.331C22.4916 18.8564 21.7792 19.1521 21.0361 19.153ZM21.0361 14.3414C20.6388 14.3414 20.2505 14.4592 19.9202 14.6799C19.5899 14.9006 19.3325 15.2143 19.1804 15.5813C19.0284 15.9484 18.9886 16.3522 19.0661 16.7418C19.1436 17.1314 19.3349 17.4893 19.6158 17.7702C19.8967 18.0511 20.2546 18.2424 20.6442 18.3199C21.0339 18.3974 21.4377 18.3576 21.8047 18.2056C22.1717 18.0536 22.4854 17.7962 22.7061 17.4659C22.9268 17.1356 23.0446 16.7472 23.0446 16.35C23.044 15.8175 22.8322 15.307 22.4557 14.9304C22.0791 14.5539 21.5686 14.3421 21.0361 14.3414Z" fill="white"/>
<path d="M7.78197 19.153C7.22756 19.1531 6.68558 18.9888 6.22457 18.6808C5.76356 18.3729 5.40422 17.9351 5.192 17.4229C4.97978 16.9108 4.92422 16.3471 5.03233 15.8034C5.14044 15.2596 5.40737 14.7601 5.79937 14.3681C6.19137 13.976 6.69083 13.709 7.23458 13.6008C7.77833 13.4926 8.34195 13.5481 8.85416 13.7603C9.36638 13.9724 9.80418 14.3317 10.1122 14.7927C10.4202 15.2536 10.5846 15.7956 10.5846 16.35C10.5837 17.093 10.2881 17.8054 9.76273 18.3308C9.23734 18.8563 8.52503 19.152 7.78197 19.153ZM7.78197 14.3415C7.3847 14.3414 6.99633 14.4591 6.66598 14.6798C6.33562 14.9004 6.07812 15.2141 5.92604 15.5811C5.77396 15.9481 5.73412 16.3519 5.81158 16.7416C5.88903 17.1312 6.0803 17.4891 6.36118 17.7701C6.64206 18.051 6.99995 18.2424 7.38958 18.3199C7.77921 18.3974 8.18308 18.3577 8.55012 18.2057C8.91715 18.0536 9.23087 17.7962 9.45159 17.4659C9.6723 17.1356 9.79011 16.7472 9.79011 16.35C9.78948 15.8175 9.57772 15.3071 9.20127 14.9306C8.82482 14.554 8.31441 14.3422 7.78197 14.3415Z" fill="white"/>
<path d="M16.7226 13.2275H16.0937C15.9884 13.2275 15.8873 13.1857 15.8128 13.1112C15.7383 13.0367 15.6965 12.9356 15.6965 12.8303C15.6965 12.7249 15.7383 12.6239 15.8128 12.5494C15.8873 12.4749 15.9884 12.433 16.0937 12.433H16.7226C16.828 12.433 16.929 12.4749 17.0035 12.5494C17.078 12.6239 17.1199 12.7249 17.1199 12.8303C17.1199 12.9356 17.078 13.0367 17.0035 13.1112C16.929 13.1857 16.828 13.2275 16.7226 13.2275Z" fill="white"/>
<path d="M11.615 13.2275H10.9862C10.8808 13.2275 10.7798 13.1857 10.7053 13.1112C10.6308 13.0367 10.5889 12.9356 10.5889 12.8303C10.5889 12.7249 10.6308 12.6239 10.7053 12.5494C10.7798 12.4749 10.8808 12.433 10.9862 12.433H11.615C11.7204 12.433 11.8214 12.4749 11.8959 12.5494C11.9704 12.6239 12.0123 12.7249 12.0123 12.8303C12.0123 12.9356 11.9704 13.0367 11.8959 13.1112C11.8214 13.1857 11.7204 13.2275 11.615 13.2275Z" fill="white"/>
<path d="M9.35663 21.7412H5.51713C5.41177 21.7412 5.31073 21.6993 5.23623 21.6248C5.16173 21.5503 5.11987 21.4493 5.11987 21.3439C5.11987 21.2386 5.16173 21.1375 5.23623 21.063C5.31073 20.9885 5.41177 20.9467 5.51713 20.9467H9.35663C9.46199 20.9467 9.56304 20.9885 9.63754 21.063C9.71204 21.1375 9.75389 21.2386 9.75389 21.3439C9.75389 21.4493 9.71204 21.5503 9.63754 21.6248C9.56304 21.6993 9.46199 21.7412 9.35663 21.7412Z" fill="white"/>
<path d="M3.52055 21.7412H2.90599C2.80063 21.7412 2.69958 21.6993 2.62508 21.6248C2.55058 21.5503 2.50873 21.4493 2.50873 21.3439C2.50873 21.2386 2.55058 21.1375 2.62508 21.063C2.69958 20.9885 2.80063 20.9467 2.90599 20.9467H3.52055C3.6259 20.9467 3.72695 20.9885 3.80145 21.063C3.87595 21.1375 3.9178 21.2386 3.9178 21.3439C3.9178 21.4493 3.87595 21.5503 3.80145 21.6248C3.72695 21.6993 3.6259 21.7412 3.52055 21.7412Z" fill="white"/>
<path d="M13.1036 23.971H9.26451C9.15915 23.971 9.0581 23.9292 8.9836 23.8547C8.9091 23.7802 8.86725 23.6791 8.86725 23.5737C8.86725 23.4684 8.9091 23.3673 8.9836 23.2928C9.0581 23.2183 9.15915 23.1765 9.26451 23.1765H13.1036C13.209 23.1765 13.31 23.2183 13.3845 23.2928C13.459 23.3673 13.5009 23.4684 13.5009 23.5737C13.5009 23.6791 13.459 23.7802 13.3845 23.8547C13.31 23.9292 13.209 23.971 13.1036 23.971Z" fill="white"/>
<path d="M7.26789 23.971H6.65373C6.54837 23.971 6.44732 23.9292 6.37282 23.8547C6.29832 23.7802 6.25647 23.6791 6.25647 23.5737C6.25647 23.4684 6.29832 23.3673 6.37282 23.2928C6.44732 23.2183 6.54837 23.1765 6.65373 23.1765H7.26789C7.37325 23.1765 7.47429 23.2183 7.54879 23.2928C7.62329 23.3673 7.66514 23.4684 7.66514 23.5737C7.66514 23.6791 7.62329 23.7802 7.54879 23.8547C7.47429 23.9292 7.37325 23.971 7.26789 23.971Z" fill="white"/>
<path d="M8.85254 3.05333H5.01384C4.90848 3.05333 4.80743 3.01148 4.73293 2.93698C4.65843 2.86248 4.61658 2.76143 4.61658 2.65608C4.61658 2.55072 4.65843 2.44967 4.73293 2.37517C4.80743 2.30067 4.90848 2.25882 5.01384 2.25882H8.85334C8.9587 2.25882 9.05974 2.30067 9.13424 2.37517C9.20874 2.44967 9.2506 2.55072 9.2506 2.65608C9.2506 2.76143 9.20874 2.86248 9.13424 2.93698C9.05974 3.01148 8.9587 3.05333 8.85334 3.05333H8.85254Z" fill="white"/>
<path d="M11.4629 3.05333H10.8487C10.7434 3.05333 10.6423 3.01148 10.5678 2.93698C10.4933 2.86248 10.4515 2.76143 10.4515 2.65608C10.4515 2.55072 10.4933 2.44967 10.5678 2.37517C10.6423 2.30067 10.7434 2.25882 10.8487 2.25882H11.4629C11.5683 2.25882 11.6693 2.30067 11.7438 2.37517C11.8183 2.44967 11.8602 2.55072 11.8602 2.65608C11.8602 2.76143 11.8183 2.86248 11.7438 2.93698C11.6693 3.01148 11.5683 3.05333 11.4629 3.05333Z" fill="white"/>
<path d="M6.89524 0.823507H3.05613C2.95077 0.823507 2.84973 0.781653 2.77523 0.707153C2.70073 0.632653 2.65887 0.531609 2.65887 0.426249C2.65887 0.32089 2.70073 0.219846 2.77523 0.145346C2.84973 0.0708454 2.95077 0.0289917 3.05613 0.0289917H6.89524C7.0006 0.0289917 7.10164 0.0708454 7.17614 0.145346C7.25064 0.219846 7.2925 0.32089 7.2925 0.426249C7.2925 0.531609 7.25064 0.632653 7.17614 0.707153C7.10164 0.781653 7.0006 0.823507 6.89524 0.823507Z" fill="white"/>
<path d="M1.05952 0.823507H0.445354C0.339995 0.823507 0.23895 0.781653 0.16445 0.707153C0.0899496 0.632653 0.0480957 0.531609 0.0480957 0.426249C0.0480957 0.32089 0.0899496 0.219846 0.16445 0.145346C0.23895 0.0708454 0.339995 0.0289917 0.445354 0.0289917H1.05952C1.16488 0.0289917 1.26592 0.0708454 1.34042 0.145346C1.41492 0.219846 1.45677 0.32089 1.45677 0.426249C1.45677 0.531609 1.41492 0.632653 1.34042 0.707153C1.26592 0.781653 1.16488 0.823507 1.05952 0.823507Z" fill="white"/>
</g>
<defs>
<clipPath id="clip0">
<rect width="27.9043" height="24" fill="white"/>
</clipPath>
</defs>
</svg>
