<svg width="512" height="512" viewBox="0 0 512 512" fill="none" xmlns="http://www.w3.org/2000/svg">
<path d="M282.2 404H377.991C379.582 404 381.108 403.368 382.234 402.243C383.359 401.117 383.991 399.591 383.991 398C383.991 396.409 383.359 394.883 382.234 393.757C381.108 392.632 379.582 392 377.991 392H282.2C280.609 392 279.083 392.632 277.957 393.757C276.832 394.883 276.2 396.409 276.2 398C276.2 399.591 276.832 401.117 277.957 402.243C279.083 403.368 280.609 404 282.2 404Z" fill="white" fill-opacity="0.3"/>
<path d="M282.2 388H377.991C379.582 388 381.108 387.368 382.234 386.243C383.359 385.117 383.991 383.591 383.991 382C383.991 380.409 383.359 378.883 382.234 377.757C381.108 376.632 379.582 376 377.991 376H282.2C281.412 376 280.632 376.155 279.904 376.457C279.176 376.758 278.515 377.2 277.957 377.757C277.4 378.315 276.958 378.976 276.657 379.704C276.355 380.432 276.2 381.212 276.2 382C276.2 382.788 276.355 383.568 276.657 384.296C276.958 385.024 277.4 385.685 277.957 386.243C278.515 386.8 279.176 387.242 279.904 387.543C280.632 387.845 281.412 388 282.2 388Z" fill="white" fill-opacity="0.3"/>
<path d="M398.335 418H431.328C437.03 418 442.499 415.735 446.531 411.703C450.563 407.671 452.828 402.202 452.828 396.5C452.828 390.798 450.563 385.329 446.531 381.297C442.499 377.265 437.03 375 431.328 375H404.3C402.907 374.997 401.557 375.479 400.482 376.364C399.407 377.249 398.674 378.481 398.409 379.848L392.443 410.706C392.275 411.587 392.301 412.493 392.519 413.363C392.737 414.232 393.142 415.044 393.706 415.741C394.265 416.434 394.969 416.995 395.769 417.385C396.569 417.776 397.445 417.985 398.335 418ZM409.252 387H431.328C433.848 387 436.264 388.001 438.046 389.782C439.827 391.564 440.828 393.98 440.828 396.5C440.828 399.02 439.827 401.436 438.046 403.218C436.264 404.999 433.848 406 431.328 406H405.605L409.252 387Z" fill="white" fill-opacity="0.3"/>
<path d="M228.854 418H261.848C262.738 417.982 263.613 417.77 264.413 417.379C265.212 416.988 265.917 416.427 266.478 415.736C267.038 415.045 267.442 414.24 267.659 413.377C267.877 412.514 267.904 411.613 267.738 410.739L261.772 379.868C261.509 378.499 260.777 377.264 259.702 376.375C258.627 375.487 257.276 375.001 255.882 375H228.854C223.152 375 217.683 377.265 213.651 381.297C209.619 385.329 207.354 390.798 207.354 396.5C207.354 402.202 209.619 407.671 213.651 411.703C217.683 415.735 223.152 418 228.854 418ZM228.854 387H250.931L254.577 406H228.854C226.334 406 223.918 404.999 222.136 403.218C220.355 401.436 219.354 399.02 219.354 396.5C219.354 393.98 220.355 391.564 222.136 389.782C223.918 388.001 226.334 387 228.854 387Z" fill="white" fill-opacity="0.3"/>
<path d="M152.079 154.193C148.796 154.19 145.586 155.16 142.855 156.981C140.124 158.803 137.994 161.393 136.736 164.425C135.477 167.457 135.146 170.794 135.785 174.014C136.423 177.234 138.002 180.193 140.323 182.515C142.643 184.837 145.6 186.419 148.819 187.061C152.038 187.703 155.376 187.375 158.409 186.119C161.442 184.864 164.035 182.737 165.859 180.007C167.683 177.278 168.656 174.069 168.656 170.786C168.654 166.389 166.908 162.172 163.8 159.061C160.692 155.95 156.476 154.199 152.079 154.193ZM152.079 175.38C151.17 175.383 150.28 175.117 149.522 174.614C148.764 174.111 148.173 173.395 147.823 172.556C147.472 171.717 147.379 170.792 147.554 169.9C147.73 169.008 148.166 168.188 148.808 167.544C149.449 166.899 150.268 166.46 151.159 166.282C152.051 166.103 152.976 166.193 153.816 166.54C154.657 166.887 155.375 167.476 155.881 168.232C156.386 168.988 156.656 169.877 156.656 170.786C156.657 172.002 156.175 173.168 155.317 174.029C154.459 174.891 153.295 175.376 152.079 175.38Z" fill="white" fill-opacity="0.3"/>
<path d="M211.577 187.38C214.86 187.383 218.07 186.413 220.801 184.592C223.532 182.77 225.661 180.18 226.92 177.148C228.179 174.116 228.51 170.779 227.871 167.559C227.233 164.339 225.654 161.381 223.334 159.058C221.014 156.736 218.057 155.154 214.838 154.512C211.618 153.87 208.281 154.198 205.248 155.454C202.215 156.709 199.622 158.836 197.798 161.565C195.974 164.294 195 167.503 195 170.786C195.002 175.184 196.748 179.401 199.856 182.512C202.964 185.623 207.179 187.374 211.577 187.38ZM211.577 166.193C212.486 166.19 213.376 166.456 214.134 166.959C214.892 167.462 215.483 168.178 215.833 169.017C216.184 169.857 216.277 170.781 216.102 171.673C215.926 172.565 215.49 173.386 214.848 174.03C214.206 174.674 213.388 175.113 212.496 175.292C211.604 175.47 210.68 175.38 209.839 175.033C208.999 174.685 208.28 174.096 207.775 173.34C207.27 172.584 207 171.695 207 170.786C206.999 169.57 207.481 168.404 208.339 167.543C209.197 166.682 210.361 166.196 211.577 166.193Z" fill="white" fill-opacity="0.3"/>
<path d="M271.075 187.38C274.358 187.384 277.568 186.414 280.299 184.593C283.031 182.772 285.161 180.181 286.419 177.149C287.678 174.118 288.01 170.781 287.371 167.56C286.733 164.34 285.154 161.382 282.834 159.059C280.514 156.736 277.558 155.154 274.338 154.512C271.119 153.87 267.781 154.198 264.748 155.453C261.715 156.709 259.122 158.836 257.298 161.565C255.474 164.294 254.5 167.503 254.5 170.786C254.502 175.183 256.248 179.4 259.355 182.511C262.463 185.622 266.678 187.373 271.075 187.38ZM271.075 166.193C271.984 166.19 272.874 166.456 273.632 166.959C274.39 167.462 274.981 168.178 275.332 169.017C275.682 169.857 275.775 170.781 275.6 171.673C275.424 172.565 274.988 173.386 274.346 174.03C273.704 174.674 272.886 175.113 271.994 175.292C271.102 175.47 270.178 175.38 269.337 175.033C268.497 174.685 267.778 174.096 267.273 173.34C266.768 172.584 266.498 171.695 266.498 170.786C266.497 169.57 266.979 168.404 267.837 167.543C268.695 166.682 269.859 166.196 271.075 166.193Z" fill="white" fill-opacity="0.3"/>
<path d="M330.572 187.38C333.855 187.384 337.065 186.415 339.797 184.594C342.529 182.773 344.659 180.183 345.919 177.152C347.178 174.12 347.51 170.783 346.872 167.562C346.234 164.342 344.655 161.383 342.336 159.06C340.016 156.737 337.059 155.155 333.839 154.512C330.62 153.87 327.282 154.198 324.249 155.453C321.215 156.708 318.622 158.835 316.798 161.565C314.974 164.294 314 167.503 314 170.786C314.002 175.183 315.747 179.399 318.854 182.51C321.961 185.621 326.175 187.373 330.572 187.38ZM330.572 166.193C331.482 166.189 332.372 166.454 333.13 166.957C333.889 167.459 334.481 168.175 334.832 169.014C335.183 169.853 335.277 170.777 335.102 171.67C334.927 172.563 334.492 173.383 333.85 174.028C333.208 174.673 332.39 175.112 331.498 175.291C330.606 175.47 329.681 175.38 328.84 175.033C328 174.686 327.281 174.097 326.775 173.341C326.27 172.585 326 171.696 326 170.786C325.999 169.571 326.48 168.406 327.337 167.545C328.194 166.684 329.357 166.198 330.572 166.193Z" fill="white" fill-opacity="0.3"/>
<path d="M92.581 203.847C89.2983 203.844 86.0884 204.814 83.3572 206.635C80.6261 208.457 78.4966 211.047 77.238 214.079C75.9795 217.111 75.6484 220.448 76.2868 223.668C76.9251 226.888 78.5042 229.846 80.8243 232.169C83.1443 234.491 86.101 236.073 89.3204 236.715C92.5398 237.356 95.8772 237.029 98.9103 235.773C101.943 234.518 104.536 232.391 106.36 229.662C108.184 226.933 109.158 223.724 109.158 220.441C109.156 216.043 107.41 211.826 104.302 208.715C101.194 205.604 96.9786 203.853 92.581 203.847ZM92.581 225.034C91.6716 225.037 90.7817 224.771 90.024 224.268C89.2663 223.765 88.6748 223.049 88.3245 222.21C87.9742 221.37 87.8809 220.446 88.0563 219.554C88.2317 218.661 88.668 217.841 89.3099 217.197C89.9518 216.553 90.7704 216.114 91.6621 215.935C92.5538 215.757 93.4784 215.847 94.3188 216.194C95.1592 216.542 95.8776 217.131 96.3831 217.887C96.8885 218.643 97.1582 219.532 97.158 220.441C97.1588 221.657 96.6774 222.823 95.8193 223.684C94.9612 224.545 93.7966 225.03 92.581 225.034Z" fill="white" fill-opacity="0.3"/>
<path d="M152.079 203.847C148.796 203.844 145.586 204.814 142.855 206.635C140.124 208.457 137.995 211.047 136.736 214.079C135.477 217.111 135.146 220.448 135.785 223.668C136.423 226.888 138.002 229.846 140.322 232.169C142.642 234.491 145.599 236.073 148.818 236.715C152.038 237.356 155.375 237.029 158.408 235.773C161.441 234.518 164.034 232.391 165.858 229.662C167.682 226.933 168.656 223.724 168.656 220.441C168.654 216.043 166.908 211.826 163.8 208.715C160.692 205.604 156.477 203.853 152.079 203.847ZM152.079 225.034C151.17 225.037 150.28 224.771 149.522 224.268C148.764 223.765 148.173 223.049 147.822 222.21C147.472 221.37 147.379 220.446 147.554 219.554C147.73 218.661 148.166 217.841 148.808 217.197C149.45 216.553 150.268 216.114 151.16 215.935C152.052 215.757 152.976 215.847 153.817 216.194C154.657 216.542 155.376 217.131 155.881 217.887C156.386 218.643 156.656 219.532 156.656 220.441C156.657 221.657 156.175 222.823 155.317 223.684C154.459 224.545 153.295 225.03 152.079 225.034Z" fill="white" fill-opacity="0.3"/>
<path d="M211.577 237.034C214.86 237.037 218.07 236.067 220.801 234.246C223.532 232.424 225.662 229.834 226.92 226.802C228.179 223.77 228.51 220.433 227.871 217.213C227.233 213.993 225.654 211.034 223.333 208.712C221.013 206.39 218.056 204.807 214.837 204.166C211.618 203.524 208.28 203.852 205.247 205.108C202.214 206.363 199.621 208.49 197.797 211.22C195.973 213.949 195 217.158 195 220.441C195.002 224.838 196.748 229.055 199.856 232.166C202.964 235.277 207.18 237.028 211.577 237.034ZM211.577 215.847C212.486 215.844 213.376 216.11 214.134 216.613C214.892 217.116 215.483 217.832 215.833 218.671C216.184 219.51 216.277 220.434 216.102 221.327C215.926 222.219 215.49 223.039 214.848 223.683C214.207 224.328 213.388 224.767 212.497 224.945C211.605 225.124 210.68 225.034 209.84 224.687C208.999 224.34 208.281 223.751 207.775 222.995C207.27 222.239 207 221.35 207 220.441C206.999 219.225 207.481 218.059 208.339 217.198C209.197 216.336 210.361 215.851 211.577 215.847Z" fill="white" fill-opacity="0.3"/>
<path d="M271.075 237.034C274.358 237.038 277.568 236.068 280.299 234.247C283.031 232.425 285.161 229.835 286.419 226.803C287.678 223.771 288.01 220.434 287.371 217.214C286.733 213.994 285.154 211.035 282.834 208.713C280.514 206.39 277.557 204.808 274.338 204.166C271.118 203.524 267.781 203.852 264.747 205.108C261.714 206.363 259.122 208.49 257.297 211.22C255.473 213.949 254.5 217.158 254.5 220.441C254.502 224.838 256.248 229.055 259.356 232.166C262.463 235.276 266.678 237.027 271.075 237.034ZM271.075 215.847C271.984 215.844 272.874 216.11 273.632 216.613C274.39 217.116 274.981 217.832 275.331 218.671C275.682 219.51 275.775 220.434 275.6 221.327C275.424 222.219 274.988 223.039 274.346 223.683C273.705 224.328 272.886 224.767 271.995 224.945C271.103 225.124 270.178 225.034 269.338 224.687C268.497 224.34 267.779 223.751 267.273 222.995C266.768 222.239 266.498 221.35 266.498 220.441C266.497 219.225 266.979 218.059 267.837 217.198C268.695 216.336 269.859 215.851 271.075 215.847Z" fill="white" fill-opacity="0.3"/>
<path d="M330.572 237.034C333.855 237.038 337.065 236.069 339.797 234.248C342.529 232.427 344.659 229.837 345.919 226.805C347.178 223.773 347.51 220.436 346.872 217.216C346.234 213.995 344.655 211.037 342.335 208.714C340.015 206.391 337.058 204.808 333.839 204.166C330.619 203.524 327.282 203.852 324.248 205.107C321.215 206.363 318.622 208.49 316.798 211.219C314.973 213.949 314 217.158 314 220.441C314.002 224.837 315.748 229.054 318.855 232.165C321.961 235.275 326.175 237.027 330.572 237.034ZM330.572 215.847C331.482 215.843 332.372 216.108 333.13 216.61C333.889 217.113 334.481 217.829 334.832 218.668C335.183 219.507 335.277 220.431 335.102 221.324C334.928 222.216 334.492 223.037 333.85 223.682C333.209 224.326 332.39 224.766 331.498 224.945C330.607 225.124 329.682 225.034 328.841 224.687C328 224.34 327.282 223.751 326.776 222.996C326.27 222.24 326 221.35 326 220.441C325.999 219.226 326.48 218.06 327.337 217.199C328.194 216.338 329.357 215.852 330.572 215.847Z" fill="white" fill-opacity="0.3"/>
<path d="M330.572 286.79C333.855 286.794 337.066 285.825 339.798 284.004C342.529 282.183 344.66 279.593 345.919 276.561C347.178 273.529 347.51 270.191 346.872 266.971C346.233 263.75 344.654 260.791 342.334 258.469C340.014 256.146 337.057 254.564 333.837 253.922C330.617 253.28 327.279 253.608 324.246 254.864C321.213 256.12 318.62 258.248 316.796 260.978C314.972 263.707 313.999 266.917 314 270.2C314.003 274.596 315.749 278.812 318.856 281.922C321.962 285.032 326.176 286.783 330.572 286.79ZM330.572 265.603C331.481 265.599 332.372 265.864 333.13 266.366C333.888 266.868 334.48 267.584 334.832 268.423C335.183 269.262 335.277 270.186 335.103 271.079C334.928 271.971 334.493 272.792 333.851 273.437C333.21 274.081 332.392 274.521 331.5 274.701C330.609 274.88 329.684 274.791 328.843 274.444C328.002 274.098 327.283 273.509 326.777 272.754C326.271 271.998 326.001 271.109 326 270.2C325.997 268.984 326.477 267.817 327.334 266.954C328.192 266.092 329.356 265.605 330.572 265.6V265.603Z" fill="white" fill-opacity="0.3"/>
<path d="M60 141.24C58.4087 141.24 56.8826 141.872 55.7574 142.997C54.6321 144.123 54 145.649 54 147.24V150C54 151.591 54.6321 153.117 55.7574 154.243C56.8826 155.368 58.4087 156 60 156C61.5913 156 63.1174 155.368 64.2426 154.243C65.3679 153.117 66 151.591 66 150V147.24C66 145.649 65.3679 144.123 64.2426 142.997C63.1174 141.872 61.5913 141.24 60 141.24Z" fill="white" fill-opacity="0.3"/>
<path d="M60 161.821C58.4087 161.821 56.8826 162.453 55.7574 163.578C54.6321 164.704 54 166.23 54 167.821V247.828C54 249.419 54.6321 250.945 55.7574 252.071C56.8826 253.196 58.4087 253.828 60 253.828C61.5913 253.828 63.1174 253.196 64.2426 252.071C65.3679 250.945 66 249.419 66 247.828V167.821C66 166.23 65.3679 164.704 64.2426 163.578C63.1174 162.453 61.5913 161.821 60 161.821Z" fill="white" fill-opacity="0.3"/>
<path d="M92.581 253.5C89.2986 253.497 86.0888 254.467 83.3579 256.288C80.6269 258.109 78.4974 260.699 77.2386 263.731C75.9799 266.762 75.6485 270.099 76.2864 273.319C76.9242 276.539 78.5027 279.497 80.8221 281.82C83.1416 284.142 86.0978 285.725 89.3167 286.367C92.5357 287.01 95.8729 286.683 98.9062 285.428C101.939 284.174 104.532 282.048 106.357 279.319C108.182 276.591 109.157 273.382 109.158 270.1C109.158 265.701 107.412 261.483 104.304 258.37C101.196 255.258 96.9796 253.506 92.581 253.5ZM92.581 274.687C91.6716 274.69 90.7817 274.424 90.024 273.921C89.2663 273.418 88.6748 272.702 88.3245 271.863C87.9742 271.023 87.8809 270.099 88.0563 269.207C88.2317 268.315 88.668 267.494 89.3099 266.85C89.9518 266.206 90.7704 265.767 91.6621 265.588C92.5538 265.41 93.4784 265.5 94.3188 265.847C95.1592 266.195 95.8776 266.784 96.3831 267.54C96.8885 268.296 97.1582 269.185 97.158 270.094C97.1593 271.31 96.6781 272.477 95.82 273.338C94.9619 274.2 93.797 274.686 92.581 274.689V274.687Z" fill="white" fill-opacity="0.3"/>
<path d="M152.079 253.5C148.797 253.497 145.587 254.467 142.856 256.288C140.125 258.109 137.995 260.699 136.737 263.731C135.478 266.762 135.146 270.099 135.784 273.319C136.422 276.539 138.001 279.497 140.32 281.82C142.64 284.142 145.596 285.725 148.815 286.367C152.034 287.01 155.371 286.683 158.404 285.428C161.437 284.174 164.03 282.048 165.855 279.319C167.68 276.591 168.655 273.382 168.656 270.1C168.656 265.701 166.91 261.483 163.802 258.37C160.694 255.258 156.478 253.506 152.079 253.5ZM152.079 274.687C151.17 274.69 150.28 274.424 149.522 273.921C148.764 273.418 148.173 272.702 147.823 271.863C147.472 271.023 147.379 270.099 147.554 269.207C147.73 268.315 148.166 267.494 148.808 266.85C149.45 266.206 150.268 265.767 151.16 265.588C152.052 265.41 152.976 265.5 153.817 265.847C154.657 266.195 155.376 266.784 155.881 267.54C156.386 268.296 156.656 269.185 156.656 270.094C156.657 271.31 156.176 272.477 155.318 273.338C154.46 274.2 153.295 274.686 152.079 274.689V274.687Z" fill="white" fill-opacity="0.3"/>
<path d="M211.577 286.689C214.86 286.692 218.07 285.722 220.801 283.9C223.532 282.079 225.662 279.488 226.92 276.456C228.179 273.424 228.51 270.086 227.871 266.866C227.232 263.646 225.653 260.688 223.332 258.366C221.011 256.043 218.054 254.462 214.835 253.82C211.615 253.179 208.277 253.508 205.244 254.764C202.211 256.02 199.619 258.148 197.795 260.878C195.972 263.608 194.999 266.817 195 270.1C195.003 274.497 196.75 278.713 199.858 281.823C202.966 284.933 207.18 286.683 211.577 286.689ZM211.577 265.502C212.486 265.499 213.376 265.765 214.133 266.268C214.891 266.77 215.483 267.486 215.833 268.325C216.183 269.164 216.277 270.088 216.102 270.98C215.927 271.872 215.491 272.693 214.85 273.337C214.208 273.981 213.39 274.421 212.499 274.6C211.608 274.779 210.683 274.69 209.843 274.343C209.002 273.996 208.283 273.408 207.777 272.653C207.271 271.898 207.001 271.009 207 270.1C206.998 268.883 207.478 267.715 208.337 266.853C209.195 265.99 210.36 265.504 211.577 265.5V265.502Z" fill="white" fill-opacity="0.3"/>
<path d="M92.581 303.157C89.2983 303.154 86.0883 304.124 83.3572 305.945C80.626 307.767 78.4965 310.357 77.2379 313.389C75.9794 316.421 75.6484 319.758 76.2869 322.978C76.9253 326.198 78.5045 329.157 80.8246 331.479C83.1448 333.801 86.1016 335.383 89.321 336.025C92.5405 336.667 95.8779 336.339 98.911 335.083C101.944 333.828 104.537 331.701 106.361 328.971C108.185 326.242 109.158 323.033 109.158 319.75C109.156 315.353 107.41 311.136 104.302 308.025C101.194 304.914 96.9784 303.163 92.581 303.157ZM92.581 324.344C91.6717 324.347 90.7818 324.081 90.0241 323.578C89.2664 323.075 88.6749 322.359 88.3246 321.52C87.9743 320.681 87.8809 319.756 88.0562 318.864C88.2316 317.972 88.6677 317.152 89.3095 316.508C89.9513 315.863 90.7699 315.424 91.6615 315.246C92.5531 315.067 93.4777 315.157 94.3181 315.504C95.1585 315.851 95.877 316.44 96.3826 317.196C96.8881 317.952 97.158 318.841 97.158 319.75C97.1588 320.966 96.6774 322.132 95.8194 322.993C94.9613 323.855 93.7967 324.34 92.581 324.344Z" fill="white" fill-opacity="0.3"/>
<path d="M152.079 303.157C148.796 303.154 145.586 304.124 142.855 305.945C140.124 307.767 137.994 310.357 136.736 313.389C135.477 316.421 135.146 319.758 135.785 322.978C136.423 326.198 138.002 329.157 140.323 331.479C142.643 333.801 145.6 335.383 148.819 336.025C152.038 336.667 155.376 336.339 158.409 335.083C161.442 333.828 164.035 331.701 165.859 328.971C167.683 326.242 168.656 323.033 168.656 319.75C168.654 315.353 166.908 311.136 163.8 308.025C160.692 304.914 156.476 303.163 152.079 303.157ZM152.079 324.344C151.17 324.347 150.28 324.081 149.522 323.578C148.764 323.075 148.173 322.359 147.823 321.52C147.472 320.681 147.379 319.756 147.554 318.864C147.73 317.972 148.166 317.152 148.808 316.508C149.449 315.863 150.268 315.424 151.159 315.246C152.051 315.067 152.976 315.157 153.816 315.504C154.657 315.851 155.375 316.44 155.881 317.196C156.386 317.952 156.656 318.841 156.656 319.75C156.657 320.966 156.175 322.132 155.317 322.993C154.459 323.855 153.295 324.34 152.079 324.344Z" fill="white" fill-opacity="0.3"/>
<path d="M271.075 286.79C274.358 286.794 277.568 285.824 280.3 284.002C283.031 282.181 285.161 279.591 286.42 276.559C287.679 273.526 288.01 270.189 287.371 266.969C286.733 263.749 285.153 260.79 282.833 258.468C280.513 256.145 277.556 254.563 274.336 253.922C271.116 253.28 267.779 253.609 264.745 254.865C261.712 256.121 259.12 258.248 257.296 260.978C255.472 263.708 254.499 266.917 254.5 270.2C254.503 274.597 256.249 278.812 259.357 281.923C262.464 285.033 266.678 286.783 271.075 286.79ZM271.075 265.603C271.984 265.599 272.874 265.865 273.632 266.368C274.39 266.87 274.982 267.586 275.333 268.425C275.683 269.264 275.777 270.188 275.602 271.08C275.427 271.973 274.992 272.793 274.35 273.438C273.709 274.082 272.891 274.522 271.999 274.701C271.108 274.88 270.183 274.791 269.342 274.444C268.502 274.097 267.783 273.509 267.277 272.753C266.771 271.998 266.501 271.109 266.5 270.2C266.497 268.984 266.978 267.816 267.836 266.953C268.693 266.091 269.859 265.604 271.075 265.6V265.603Z" fill="white" fill-opacity="0.3"/>
<path d="M476 426.83V381.224C475.983 375.337 473.838 369.655 469.962 365.225C466.085 360.795 460.738 357.915 454.906 357.116L437.553 309.538C435.756 304.669 432.504 300.471 428.24 297.513C423.976 294.554 418.905 292.979 413.715 293H394V85.36C394 67.556 379.051 53 361.241 53H342V37.463C342.027 33.8722 341.344 30.3114 339.99 26.9854C338.637 23.6593 336.64 20.6333 334.113 18.0814C331.587 15.5295 328.581 13.5019 325.269 12.115C321.957 10.7282 318.403 10.0094 314.812 10C299.667 10 287 22.32 287 37.463V53H136V37.463C136 30.1696 133.103 23.1748 127.945 18.0176C122.788 12.8603 115.793 9.96301 108.5 9.96301C101.207 9.96301 94.2118 12.8603 89.0546 18.0176C83.8973 23.1748 81 30.1696 81 37.463V53H61.908C57.6857 53.0202 53.509 53.8742 49.6177 55.513C45.7263 57.1517 42.1969 59.5429 39.2322 62.5493C36.2674 65.5557 33.9257 69.118 32.3414 73.0318C30.757 76.9457 29.9614 81.1339 30 85.356V356.856C29.9607 361.069 30.7577 365.247 32.3447 369.15C33.9318 373.053 36.2774 376.602 39.2457 379.591C42.214 382.581 45.746 384.952 49.6371 386.567C53.5282 388.182 57.701 389.009 61.914 389H188V426.83C186.285 427.413 184.789 428.509 183.716 429.969C182.643 431.429 182.044 433.183 182 434.994V456.439C181.976 458.674 182.836 460.828 184.393 462.431C185.95 464.035 188.077 464.958 190.312 465H190.867L191.024 487.166C191.061 491.121 192.661 494.9 195.474 497.68C198.288 500.459 202.087 502.012 206.042 502H206.155L230.6 501.837C232.574 501.828 234.526 501.428 236.344 500.659C238.161 499.89 239.809 498.769 241.19 497.359C242.578 495.972 243.675 494.323 244.418 492.507C245.16 490.691 245.532 488.745 245.513 486.783L245.358 465H418.792L418.949 487.165C418.981 491.121 420.579 494.903 423.393 497.683C426.207 500.463 430.008 502.015 433.964 502H434.079L458.524 501.837C460.498 501.828 462.45 501.428 464.268 500.659C466.086 499.89 467.733 498.769 469.115 497.359C470.503 495.972 471.6 494.323 472.343 492.507C473.085 490.691 473.457 488.745 473.438 486.783L473.283 465H473.953C478.587 465 482 461.073 482 456.439V434.994C482 431.035 480 427.715 476 426.83ZM464 381.224V427H396.09L385.161 410.8C384.62 409.97 383.887 409.283 383.025 408.795C382.162 408.308 381.195 408.035 380.205 408H279.333C278.343 408.035 277.376 408.308 276.513 408.795C275.651 409.283 274.918 409.97 274.377 410.8L263.448 427H200V381.224C200 374.424 205.889 369 212.69 369H451.576C454.844 368.975 457.988 370.248 460.318 372.541C462.648 374.833 463.972 377.956 464 381.224ZM381.563 427H277.975L282.503 420H377.035L381.563 427ZM413.715 305C416.444 304.986 419.111 305.813 421.354 307.367C423.597 308.922 425.306 311.13 426.251 313.69L442.013 357H222.253L238.014 313.69C238.959 311.13 240.669 308.922 242.912 307.367C245.155 305.812 247.822 304.986 250.551 305H413.715ZM299 37.463C299 33.3522 300.633 29.4097 303.54 26.5029C306.447 23.596 310.389 21.963 314.5 21.963C318.611 21.963 322.553 23.596 325.46 26.5029C328.367 29.4097 330 33.3522 330 37.463V78H299V37.463ZM93 37.463C93 33.3522 94.633 29.4097 97.5398 26.5029C100.447 23.596 104.389 21.963 108.5 21.963C112.611 21.963 116.553 23.596 119.46 26.5029C122.367 29.4097 124 33.3522 124 37.463V78H93V37.463ZM42 85.352C41.9602 82.7051 42.4449 80.0766 43.4262 77.618C44.4074 75.1594 45.8658 72.9195 47.7172 71.0274C49.5685 69.1353 51.7762 67.6286 54.2129 66.5941C56.6495 65.5596 59.2669 65.0178 61.914 65H81V84.182C80.99 84.954 81.1357 85.7201 81.4283 86.4345C81.721 87.1489 82.1547 87.797 82.7034 88.34C83.2522 88.8831 83.9048 89.31 84.6222 89.5952C85.3396 89.8804 86.1072 90.0181 86.879 90H129.8C131.393 90.048 132.94 89.4626 134.102 88.3721C135.264 87.2815 135.947 85.7748 136 84.182V65H287V84.182C287 87.5 290.033 90 293.347 90H336.275C337.039 90.0151 337.798 89.8741 338.505 89.5859C339.213 89.2976 339.854 88.8681 340.39 88.3235C340.926 87.7789 341.345 87.1308 341.622 86.4187C341.899 85.7066 342.027 84.9455 342 84.182V65H361.236C372.425 65 382 74.164 382 85.356V117H42V85.352ZM188.386 377H61.918C59.2807 377.01 56.6679 376.494 54.2322 375.482C51.7966 374.471 49.587 372.984 47.7326 371.108C45.8782 369.233 44.4161 367.007 43.4318 364.56C42.4475 362.113 41.9608 359.495 42 356.858V129H382V293H250.551C245.364 292.98 240.296 294.556 236.035 297.514C231.775 300.473 228.527 304.671 226.734 309.538L209.227 357.192C204.112 357.883 199.344 360.169 195.603 363.725C191.861 367.281 189.336 371.926 188.386 377ZM232.644 488.975C232.365 489.255 232.033 489.476 231.668 489.628C231.303 489.779 230.911 489.857 230.516 489.857L206.07 490.009C205.279 490.021 204.515 489.721 203.945 489.173C203.374 488.625 203.043 487.874 203.024 487.083L202.868 465H233.357L233.513 486.87C233.518 487.261 233.443 487.65 233.294 488.011C233.144 488.373 232.923 488.701 232.644 488.975ZM460.568 488.975C460.289 489.255 459.957 489.477 459.592 489.628C459.227 489.779 458.835 489.857 458.44 489.857L433.994 490.009C433.193 490.009 432.424 489.695 431.851 489.135C431.568 488.873 431.341 488.555 431.186 488.202C431.032 487.849 430.951 487.467 430.951 487.081L430.793 465H461.283L461.438 486.87C461.442 487.261 461.367 487.65 461.218 488.011C461.068 488.373 460.847 488.701 460.568 488.975ZM470 453H194V439H470V453Z" fill="white" fill-opacity="0.3"/>
</svg>
