<svg width="368" height="144" viewBox="0 0 368 144" fill="none" xmlns="http://www.w3.org/2000/svg">
<g opacity="0.26">
<path d="M367.431 76.4547L355.934 59.265C355.507 58.6302 354.85 58.191 354.098 58.0427L269.451 41.457C263.298 37.0589 210.808 0.689201 158.088 0.689201C108.175 0.689201 77.63 10.0506 71.842 11.9893L55.522 6.56741C54.0033 6.0695 52.3868 6.87833 51.8873 8.37779C51.3842 9.88012 52.1985 11.5028 53.7029 12.0007L70.9485 17.7313C71.5638 17.9355 72.2315 17.9241 72.8381 17.7091C73.1522 17.5945 104.705 6.41982 158.088 6.41982C211.099 6.41982 266.031 46.0571 266.576 46.4576C266.919 46.7062 267.312 46.8774 267.721 46.9583L351.812 63.4374L362.164 78.9127V109.56C362.164 109.582 362.124 111.798 358.722 112.48C354.333 113.354 334.499 114.709 324.624 115.296C323.041 115.391 321.834 116.745 321.93 118.323C322.019 119.845 323.287 121.021 324.798 121.021C324.854 121.021 324.91 121.021 324.973 121.014C326.152 120.941 353.98 119.274 359.858 118.098C366.23 116.823 367.914 111.954 367.914 109.559V78.0444C367.914 77.4792 367.746 76.9246 367.431 76.4547Z" fill="white"/>
<path d="M57.2815 19.6829C56.6921 18.2085 55.0081 17.4949 53.5454 18.0853C24.5863 29.6318 7.31256 46.651 6.59094 47.3703C6.05188 47.9076 5.74856 48.6355 5.74856 49.3963V65.909L0.303312 76.7642C0.104219 77.1618 0 77.6009 0 78.0458V106.695C0 107.468 0.353625 111.514 7.34059 114.989C13.3529 117.976 34.6042 120.696 37.0099 120.999C37.1306 121.009 37.2514 121.021 37.3693 121.021C38.7981 121.021 40.0358 119.958 40.2184 118.514C40.4146 116.942 39.2977 115.509 37.7229 115.314C31.4633 114.531 14.2622 112.028 9.90581 109.863C6.28762 108.062 5.76294 106.517 5.74856 106.674V78.7236L11.1945 67.8677C11.3929 67.4701 11.4971 67.0309 11.4971 66.586V50.6242C15.2476 47.1525 31.2951 33.1293 55.6787 23.4068C57.1521 22.8193 57.8709 21.1515 57.2815 19.6829Z" fill="white"/>
<path d="M255.815 115.291H106.35C104.761 115.291 103.476 116.572 103.476 118.155C103.476 119.739 104.761 121.021 106.35 121.021H255.815C257.404 121.021 258.689 119.739 258.689 118.155C258.689 116.572 257.404 115.291 255.815 115.291Z" fill="white"/>
<path d="M186.83 57.9912H175.333C173.745 57.9912 172.459 59.2721 172.459 60.8561C172.459 62.4394 173.745 63.7211 175.333 63.7211H186.83C188.42 63.7211 189.705 62.4394 189.705 60.8561C189.705 59.2721 188.42 57.9912 186.83 57.9912Z" fill="white"/>
<path d="M123.596 57.9912H112.099C110.511 57.9912 109.225 59.2721 109.225 60.8561C109.225 62.4394 110.511 63.7211 112.099 63.7211H123.596C125.185 63.7211 126.471 62.4394 126.471 60.8561C126.471 59.2721 125.185 57.9912 123.596 57.9912Z" fill="white"/>
<path d="M255.815 40.8014H117.848C91.3136 40.8014 80.6157 20.3291 80.1751 19.4593C79.4564 18.0494 77.7414 17.4756 76.3154 18.1891C74.9002 18.8998 74.3281 20.6149 75.0353 22.0277C75.5377 23.0292 87.6753 46.5313 117.847 46.5313H255.815C257.404 46.5313 258.689 45.2497 258.689 43.6671C258.689 42.0831 257.404 40.8014 255.815 40.8014Z" fill="white"/>
<path d="M54.6121 6.42125C53.0229 6.42125 51.7378 7.70293 51.7378 9.28621V15.0161C51.7378 16.6001 53.0229 17.8811 54.6121 17.8811C56.2005 17.8811 57.4871 16.5994 57.4864 15.0161V9.28621C57.4864 7.70293 56.2005 6.42125 54.6121 6.42125Z" fill="white"/>
<path d="M20.1207 86.6407H2.87428C1.28584 86.6407 0 87.9224 0 89.5057C0 91.0897 1.28584 92.3706 2.87428 92.3706H20.1207C21.7091 92.3706 22.995 91.0897 22.995 89.5057C22.995 87.9224 21.7091 86.6407 20.1207 86.6407Z" fill="white"/>
<path d="M40.0351 54.0623C39.4457 52.5908 37.7617 51.8751 36.299 52.4654L7.5562 63.9253C6.08277 64.5127 5.36402 66.1805 5.95339 67.6492C6.40261 68.7711 7.48361 69.451 8.62283 69.451C8.97933 69.451 9.34158 69.3865 9.68945 69.2461L38.4323 57.7863C39.9057 57.1988 40.6245 55.531 40.0351 54.0623Z" fill="white"/>
<path d="M37.9306 52.3171L9.18707 46.5872C7.61804 46.2684 6.1137 47.2836 5.80464 48.8339C5.4927 50.3864 6.50326 51.8944 8.05864 52.2054L36.8022 57.9353C36.9934 57.9747 37.1845 57.9912 37.3693 57.9912C38.7105 57.9912 39.9122 57.0505 40.1846 55.6886C40.4958 54.1354 39.486 52.6273 37.9306 52.3171Z" fill="white"/>
<path d="M160.906 37.3734L155.157 8.72311C154.845 7.17063 153.358 6.14615 151.775 6.47642C150.219 6.78734 149.209 8.29541 149.521 9.84789L155.269 38.4982C155.542 39.8608 156.743 40.8007 158.085 40.8007C158.27 40.8007 158.461 40.7842 158.652 40.7448C160.206 40.4339 161.218 38.9259 160.906 37.3734Z" fill="white"/>
<path d="M365.51 75.2196L331.019 69.4897C329.469 69.2067 327.976 70.2813 327.712 71.8452C327.448 73.407 328.509 74.8814 330.075 75.1415L364.567 80.8714C364.724 80.8993 364.886 80.9108 365.044 80.9108C366.419 80.9108 367.638 79.915 367.873 78.5158C368.137 76.954 367.076 75.4796 365.51 75.2196Z" fill="white"/>
<path d="M331.832 69.7533L320.335 64.0234C318.92 63.3235 317.191 63.8916 316.479 65.3044C315.771 66.72 316.343 68.4408 317.764 69.1487L329.261 74.8786C329.676 75.0828 330.114 75.1809 330.547 75.1809C331.596 75.1809 332.612 74.6013 333.118 73.5976C333.825 72.182 333.253 70.4611 331.832 69.7533Z" fill="white"/>
<path d="M345.884 63.7211H319.05C317.46 63.7211 316.175 65.0027 316.175 66.586C316.175 68.1693 317.46 69.451 319.05 69.451H345.884C347.473 69.451 348.758 68.1693 348.758 66.586C348.758 65.0027 347.473 63.7211 345.884 63.7211Z" fill="white"/>
<path d="M290.48 109.56H290.418C288.835 109.56 287.578 110.842 287.578 112.425C287.578 114.009 288.892 115.291 290.48 115.291C292.063 115.291 293.354 114.009 293.354 112.425C293.354 110.842 292.063 109.56 290.48 109.56Z" fill="white"/>
<path d="M290.306 80.9115C272.875 80.9115 258.689 95.0457 258.689 112.426C258.689 129.806 272.875 143.941 290.306 143.941C307.737 143.941 321.924 129.806 321.924 112.426C321.924 95.0457 307.737 80.9115 290.306 80.9115ZM290.306 138.211C276.042 138.211 264.437 126.645 264.437 112.425C264.437 98.2073 276.041 86.6407 290.306 86.6407C304.572 86.6407 316.175 98.2073 316.175 112.425C316.175 126.644 304.572 138.211 290.306 138.211Z" fill="white"/>
<path d="M290.306 92.3706C288.718 92.3706 287.432 93.6523 287.432 95.2356V100.965C287.432 102.549 288.718 103.83 290.306 103.83C291.895 103.83 293.181 102.549 293.181 100.965V95.2356C293.181 93.6523 291.895 92.3706 290.306 92.3706Z" fill="white"/>
<path d="M290.306 121.021C288.718 121.021 287.432 122.302 287.432 123.885V129.615C287.432 131.199 288.718 132.481 290.306 132.481C291.895 132.481 293.181 131.199 293.181 129.615V123.885C293.181 122.302 291.895 121.021 290.306 121.021Z" fill="white"/>
<path d="M278.809 109.56H273.06C271.472 109.56 270.186 110.842 270.186 112.425C270.186 114.009 271.472 115.291 273.06 115.291H278.809C280.398 115.291 281.683 114.009 281.683 112.425C281.683 110.842 280.398 109.56 278.809 109.56Z" fill="white"/>
<path d="M307.552 109.56H301.803C300.215 109.56 298.93 110.842 298.93 112.425C298.93 114.009 300.215 115.291 301.803 115.291H307.552C309.141 115.291 310.427 114.009 310.427 112.425C310.427 110.842 309.141 109.56 307.552 109.56Z" fill="white"/>
<path d="M284.209 102.298L280.145 98.2467C279.022 97.1276 277.203 97.1276 276.08 98.2467C274.958 99.3657 274.958 101.179 276.08 102.298L280.145 106.349C280.706 106.908 281.442 107.188 282.177 107.188C282.913 107.188 283.647 106.908 284.209 106.349C285.332 105.23 285.332 103.417 284.209 102.298Z" fill="white"/>
<path d="M304.532 122.554L300.468 118.503C299.345 117.384 297.526 117.384 296.403 118.503C295.28 119.622 295.28 121.435 296.403 122.554L300.468 126.605C301.029 127.165 301.764 127.444 302.5 127.444C303.235 127.444 303.971 127.166 304.532 126.605C305.655 125.486 305.655 123.673 304.532 122.554Z" fill="white"/>
<path d="M284.209 118.503C283.087 117.384 281.268 117.384 280.145 118.503L276.08 122.554C274.958 123.672 274.958 125.486 276.08 126.605C276.642 127.165 277.378 127.444 278.112 127.444C278.848 127.444 279.584 127.166 280.145 126.605L284.209 122.554C285.332 121.435 285.332 119.622 284.209 118.503Z" fill="white"/>
<path d="M304.532 98.2467C303.409 97.1276 301.59 97.1276 300.467 98.2467L296.402 102.298C295.28 103.417 295.28 105.23 296.402 106.349C296.964 106.908 297.7 107.188 298.435 107.188C299.17 107.188 299.906 106.908 300.467 106.349L304.532 102.298C305.654 101.179 305.654 99.3657 304.532 98.2467Z" fill="white"/>
<path d="M72.0295 109.56H71.9735C70.385 109.56 69.1272 110.842 69.1272 112.425C69.1272 114.009 70.4433 115.291 72.0295 115.291C73.618 115.291 74.9038 114.009 74.9038 112.425C74.9038 110.842 73.618 109.56 72.0295 109.56Z" fill="white"/>
<path d="M71.8585 80.9115C54.4273 80.9115 40.2464 95.0457 40.2464 112.426C40.2464 129.806 54.4273 143.941 71.8585 143.941C89.2917 143.941 103.476 129.806 103.476 112.426C103.476 95.0457 89.2925 80.9115 71.8585 80.9115ZM71.8585 138.211C57.597 138.211 45.9957 126.645 45.9957 112.425C45.9957 98.2073 57.5963 86.6407 71.8585 86.6407C86.1228 86.6407 97.727 98.2073 97.727 112.425C97.727 126.644 86.1235 138.211 71.8585 138.211Z" fill="white"/>
<path d="M71.8585 92.3706C70.27 92.3706 68.9842 93.6523 68.9842 95.2356V100.965C68.9842 102.549 70.27 103.83 71.8585 103.83C73.4469 103.83 74.7328 102.549 74.7328 100.965V95.2356C74.7328 93.6523 73.4469 92.3706 71.8585 92.3706Z" fill="white"/>
<path d="M71.8585 121.021C70.27 121.021 68.9842 122.302 68.9842 123.885V129.615C68.9842 131.199 70.27 132.481 71.8585 132.481C73.4469 132.481 74.7328 131.199 74.7328 129.615V123.885C74.7328 122.302 73.4469 121.021 71.8585 121.021Z" fill="white"/>
<path d="M60.3614 109.56H54.6185C53.0294 109.56 51.7443 110.842 51.7443 112.425C51.7443 114.009 53.0294 115.291 54.6185 115.291H60.3614C61.9491 115.291 63.2356 114.009 63.2356 112.425C63.2356 110.842 61.9498 109.56 60.3614 109.56Z" fill="white"/>
<path d="M89.1042 109.56H83.3556C81.7672 109.56 80.4813 110.842 80.4813 112.425C80.4813 114.009 81.7672 115.291 83.3556 115.291H89.1042C90.6926 115.291 91.9785 114.009 91.9785 112.425C91.9785 110.842 90.6926 109.56 89.1042 109.56Z" fill="white"/>
<path d="M65.7613 102.298L61.6968 98.2467C60.5741 97.1276 58.7549 97.1276 57.6322 98.2467C56.5096 99.3657 56.5096 101.179 57.6322 102.298L61.6968 106.349C62.2581 106.908 62.9941 107.188 63.7294 107.188C64.4647 107.188 65.2 106.908 65.7613 106.349C66.884 105.23 66.884 103.417 65.7613 102.298Z" fill="white"/>
<path d="M86.0833 122.554L82.0187 118.503C80.896 117.384 79.0769 117.384 77.9542 118.503C76.8315 119.622 76.8315 121.435 77.9542 122.554L82.0187 126.605C82.5801 127.165 83.3161 127.444 84.0514 127.444C84.7866 127.444 85.5219 127.166 86.0833 126.605C87.2059 125.486 87.2059 123.673 86.0833 122.554Z" fill="white"/>
<path d="M65.762 118.503C64.6393 117.384 62.8202 117.384 61.6975 118.503L57.633 122.554C56.5103 123.672 56.5103 125.486 57.633 126.605C58.1943 127.165 58.9296 127.444 59.6649 127.444C60.4002 127.444 61.1354 127.166 61.6975 126.605L65.762 122.554C66.8847 121.435 66.8847 119.622 65.762 118.503Z" fill="white"/>
<path d="M86.084 98.2467C84.9613 97.1276 83.1421 97.1276 82.0194 98.2467L77.9549 102.298C76.8322 103.417 76.8322 105.23 77.9549 106.349C78.5162 106.908 79.2515 107.188 79.9868 107.188C80.7228 107.188 81.4581 106.908 82.0194 106.349L86.084 102.298C87.2067 101.179 87.2067 99.3657 86.084 98.2467Z" fill="white"/>
</g>
</svg>
